<mxfile host="app.diagrams.net" agent="Mozilla/5.0 (Windows NT 10.0; Win64; x64; rv:128.0) Gecko/20100101 Firefox/128.0" version="24.8.3">
  <diagram name="Page-1" id="H16kf9VRxXqB6-L6vs2r">
    <mxGraphModel dx="890" dy="481" grid="1" gridSize="10" guides="1" tooltips="1" connect="1" arrows="1" fold="1" page="1" pageScale="1" pageWidth="850" pageHeight="1100" math="0" shadow="0">
      <root>
        <mxCell id="0" />
        <mxCell id="1" parent="0" />
        <mxCell id="7eF567OT12qQPNYDKjUr-1" value="" style="group;dropTarget=0;pointerEvents=0;html=1;" vertex="1" parent="1">
          <mxGeometry x="120" y="180" width="632" height="210" as="geometry" />
        </mxCell>
        <mxCell id="7eF567OT12qQPNYDKjUr-2" value="Class" style="shape=partialRectangle;html=1;whiteSpace=wrap;connectable=0;fillColor=#ffffff;verticalAlign=middle;spacing=3.8;strokeWidth=0.8;fontSize=13;align=left;" vertex="1" parent="7eF567OT12qQPNYDKjUr-1">
          <mxGeometry width="48" height="30" as="geometry" />
        </mxCell>
        <mxCell id="7eF567OT12qQPNYDKjUr-3" value="Class Teacher" style="shape=partialRectangle;html=1;whiteSpace=wrap;connectable=0;fillColor=#ffffff;verticalAlign=middle;spacing=3.8;strokeWidth=0.8;fontSize=13;align=left;" vertex="1" parent="7eF567OT12qQPNYDKjUr-1">
          <mxGeometry x="48" width="116.25" height="30" as="geometry" />
        </mxCell>
        <mxCell id="7eF567OT12qQPNYDKjUr-4" value="Attendance" style="shape=partialRectangle;html=1;whiteSpace=wrap;connectable=0;fillColor=#ffffff;verticalAlign=middle;spacing=3.8;strokeWidth=0.8;fontSize=13;align=left;" vertex="1" parent="7eF567OT12qQPNYDKjUr-1">
          <mxGeometry x="164.25" width="64.5" height="30" as="geometry" />
        </mxCell>
        <mxCell id="7eF567OT12qQPNYDKjUr-5" value="Total Students" style="shape=partialRectangle;html=1;whiteSpace=wrap;connectable=0;fillColor=#ffffff;verticalAlign=middle;spacing=3.8;strokeWidth=0.8;fontSize=13;align=left;" vertex="1" parent="7eF567OT12qQPNYDKjUr-1">
          <mxGeometry x="228.75" width="73.5" height="30" as="geometry" />
        </mxCell>
        <mxCell id="7eF567OT12qQPNYDKjUr-6" value="Classroom" style="shape=partialRectangle;html=1;whiteSpace=wrap;connectable=0;fillColor=#ffffff;verticalAlign=middle;spacing=3.8;strokeWidth=0.8;fontSize=13;align=left;" vertex="1" parent="7eF567OT12qQPNYDKjUr-1">
          <mxGeometry x="302.25" width="76.5" height="30" as="geometry" />
        </mxCell>
        <mxCell id="7eF567OT12qQPNYDKjUr-7" value="" style="shape=partialRectangle;html=1;whiteSpace=wrap;connectable=0;fillColor=#ffffff;verticalAlign=middle;spacing=3.8;strokeWidth=0.8;fontSize=13;" vertex="1" parent="7eF567OT12qQPNYDKjUr-1">
          <mxGeometry x="378.75" width="123.75" height="30" as="geometry" />
        </mxCell>
        <mxCell id="7eF567OT12qQPNYDKjUr-8" value="" style="shape=partialRectangle;html=1;whiteSpace=wrap;connectable=0;fillColor=#ffffff;verticalAlign=middle;spacing=3.8;strokeWidth=0.8;fontSize=13;" vertex="1" parent="7eF567OT12qQPNYDKjUr-1">
          <mxGeometry x="502.5" width="129.75" height="30" as="geometry" />
        </mxCell>
        <mxCell id="7eF567OT12qQPNYDKjUr-9" value="1 A" style="shape=partialRectangle;html=1;whiteSpace=wrap;connectable=0;fillColor=#ffffff;verticalAlign=middle;spacing=3.8;strokeWidth=0.8;fontSize=13;align=left;" vertex="1" parent="7eF567OT12qQPNYDKjUr-1">
          <mxGeometry y="30" width="48" height="30" as="geometry" />
        </mxCell>
        <mxCell id="7eF567OT12qQPNYDKjUr-10" value="Ankita Karn" style="shape=partialRectangle;html=1;whiteSpace=wrap;connectable=0;fillColor=#ffffff;verticalAlign=middle;spacing=3.8;strokeWidth=0.8;fontSize=13;align=left;" vertex="1" parent="7eF567OT12qQPNYDKjUr-1">
          <mxGeometry x="48" y="30" width="116.25" height="30" as="geometry" />
        </mxCell>
        <mxCell id="7eF567OT12qQPNYDKjUr-11" value="-" style="shape=partialRectangle;html=1;whiteSpace=wrap;connectable=0;fillColor=#ffffff;verticalAlign=middle;spacing=3.8;strokeWidth=0.8;fontSize=13;align=left;" vertex="1" parent="7eF567OT12qQPNYDKjUr-1">
          <mxGeometry x="164.25" y="30" width="64.5" height="30" as="geometry" />
        </mxCell>
        <mxCell id="7eF567OT12qQPNYDKjUr-12" value="5" style="shape=partialRectangle;html=1;whiteSpace=wrap;connectable=0;fillColor=#ffffff;verticalAlign=middle;spacing=3.8;strokeWidth=0.8;fontSize=13;align=right;" vertex="1" parent="7eF567OT12qQPNYDKjUr-1">
          <mxGeometry x="228.75" y="30" width="73.5" height="30" as="geometry" />
        </mxCell>
        <mxCell id="7eF567OT12qQPNYDKjUr-13" value="" style="shape=partialRectangle;html=1;whiteSpace=wrap;connectable=0;fillColor=#ffffff;verticalAlign=middle;spacing=3.8;strokeWidth=0.8;fontSize=13;" vertex="1" parent="7eF567OT12qQPNYDKjUr-1">
          <mxGeometry x="302.25" y="30" width="76.5" height="30" as="geometry" />
        </mxCell>
        <mxCell id="7eF567OT12qQPNYDKjUr-14" value="Take Attendance" style="shape=partialRectangle;html=1;whiteSpace=wrap;connectable=0;fillColor=#ffffff;verticalAlign=middle;spacing=3.8;strokeWidth=0.8;fontSize=13;align=left;" vertex="1" parent="7eF567OT12qQPNYDKjUr-1">
          <mxGeometry x="378.75" y="30" width="123.75" height="30" as="geometry" />
        </mxCell>
        <mxCell id="7eF567OT12qQPNYDKjUr-15" value="Create Assignment" style="shape=partialRectangle;html=1;whiteSpace=wrap;connectable=0;fillColor=#ffffff;verticalAlign=middle;spacing=3.8;strokeWidth=0.8;fontSize=13;align=left;" vertex="1" parent="7eF567OT12qQPNYDKjUr-1">
          <mxGeometry x="502.5" y="30" width="129.75" height="30" as="geometry" />
        </mxCell>
        <mxCell id="7eF567OT12qQPNYDKjUr-16" value="1 B" style="shape=partialRectangle;html=1;whiteSpace=wrap;connectable=0;fillColor=#ffffff;verticalAlign=middle;spacing=3.8;strokeWidth=0.8;fontSize=13;align=left;" vertex="1" parent="7eF567OT12qQPNYDKjUr-1">
          <mxGeometry y="60" width="48" height="30" as="geometry" />
        </mxCell>
        <mxCell id="7eF567OT12qQPNYDKjUr-17" value="Shruti Mallik" style="shape=partialRectangle;html=1;whiteSpace=wrap;connectable=0;fillColor=#ffffff;verticalAlign=middle;spacing=3.8;strokeWidth=0.8;fontSize=13;align=left;" vertex="1" parent="7eF567OT12qQPNYDKjUr-1">
          <mxGeometry x="48" y="60" width="116.25" height="30" as="geometry" />
        </mxCell>
        <mxCell id="7eF567OT12qQPNYDKjUr-18" value="-" style="shape=partialRectangle;html=1;whiteSpace=wrap;connectable=0;fillColor=#ffffff;verticalAlign=middle;spacing=3.8;strokeWidth=0.8;fontSize=13;align=left;" vertex="1" parent="7eF567OT12qQPNYDKjUr-1">
          <mxGeometry x="164.25" y="60" width="64.5" height="30" as="geometry" />
        </mxCell>
        <mxCell id="7eF567OT12qQPNYDKjUr-19" value="10" style="shape=partialRectangle;html=1;whiteSpace=wrap;connectable=0;fillColor=#ffffff;verticalAlign=middle;spacing=3.8;strokeWidth=0.8;fontSize=13;align=right;" vertex="1" parent="7eF567OT12qQPNYDKjUr-1">
          <mxGeometry x="228.75" y="60" width="73.5" height="30" as="geometry" />
        </mxCell>
        <mxCell id="7eF567OT12qQPNYDKjUr-20" value="AG-2" style="shape=partialRectangle;html=1;whiteSpace=wrap;connectable=0;fillColor=#ffffff;verticalAlign=middle;spacing=3.8;strokeWidth=0.8;fontSize=13;align=left;" vertex="1" parent="7eF567OT12qQPNYDKjUr-1">
          <mxGeometry x="302.25" y="60" width="76.5" height="30" as="geometry" />
        </mxCell>
        <mxCell id="7eF567OT12qQPNYDKjUr-21" value="Take Attendance" style="shape=partialRectangle;html=1;whiteSpace=wrap;connectable=0;fillColor=#ffffff;verticalAlign=middle;spacing=3.8;strokeWidth=0.8;fontSize=13;align=left;" vertex="1" parent="7eF567OT12qQPNYDKjUr-1">
          <mxGeometry x="378.75" y="60" width="123.75" height="30" as="geometry" />
        </mxCell>
        <mxCell id="7eF567OT12qQPNYDKjUr-22" value="Create Assignment" style="shape=partialRectangle;html=1;whiteSpace=wrap;connectable=0;fillColor=#ffffff;verticalAlign=middle;spacing=3.8;strokeWidth=0.8;fontSize=13;align=left;" vertex="1" parent="7eF567OT12qQPNYDKjUr-1">
          <mxGeometry x="502.5" y="60" width="129.75" height="30" as="geometry" />
        </mxCell>
        <mxCell id="7eF567OT12qQPNYDKjUr-23" value="2 A" style="shape=partialRectangle;html=1;whiteSpace=wrap;connectable=0;fillColor=#ffffff;verticalAlign=middle;spacing=3.8;strokeWidth=0.8;fontSize=13;align=left;" vertex="1" parent="7eF567OT12qQPNYDKjUr-1">
          <mxGeometry y="90" width="48" height="30" as="geometry" />
        </mxCell>
        <mxCell id="7eF567OT12qQPNYDKjUr-24" value="Anjali Sharma" style="shape=partialRectangle;html=1;whiteSpace=wrap;connectable=0;fillColor=#ffffff;verticalAlign=middle;spacing=3.8;strokeWidth=0.8;fontSize=13;align=left;" vertex="1" parent="7eF567OT12qQPNYDKjUr-1">
          <mxGeometry x="48" y="90" width="116.25" height="30" as="geometry" />
        </mxCell>
        <mxCell id="7eF567OT12qQPNYDKjUr-25" value="-" style="shape=partialRectangle;html=1;whiteSpace=wrap;connectable=0;fillColor=#ffffff;verticalAlign=middle;spacing=3.8;strokeWidth=0.8;fontSize=13;align=left;" vertex="1" parent="7eF567OT12qQPNYDKjUr-1">
          <mxGeometry x="164.25" y="90" width="64.5" height="30" as="geometry" />
        </mxCell>
        <mxCell id="7eF567OT12qQPNYDKjUr-26" value="10" style="shape=partialRectangle;html=1;whiteSpace=wrap;connectable=0;fillColor=#ffffff;verticalAlign=middle;spacing=3.8;strokeWidth=0.8;fontSize=13;align=right;" vertex="1" parent="7eF567OT12qQPNYDKjUr-1">
          <mxGeometry x="228.75" y="90" width="73.5" height="30" as="geometry" />
        </mxCell>
        <mxCell id="7eF567OT12qQPNYDKjUr-27" value="AG-1" style="shape=partialRectangle;html=1;whiteSpace=wrap;connectable=0;fillColor=#ffffff;verticalAlign=middle;spacing=3.8;strokeWidth=0.8;fontSize=13;align=left;" vertex="1" parent="7eF567OT12qQPNYDKjUr-1">
          <mxGeometry x="302.25" y="90" width="76.5" height="30" as="geometry" />
        </mxCell>
        <mxCell id="7eF567OT12qQPNYDKjUr-28" value="Take Attendance" style="shape=partialRectangle;html=1;whiteSpace=wrap;connectable=0;fillColor=#ffffff;verticalAlign=middle;spacing=3.8;strokeWidth=0.8;fontSize=13;align=left;" vertex="1" parent="7eF567OT12qQPNYDKjUr-1">
          <mxGeometry x="378.75" y="90" width="123.75" height="30" as="geometry" />
        </mxCell>
        <mxCell id="7eF567OT12qQPNYDKjUr-29" value="Create Assignment" style="shape=partialRectangle;html=1;whiteSpace=wrap;connectable=0;fillColor=#ffffff;verticalAlign=middle;spacing=3.8;strokeWidth=0.8;fontSize=13;align=left;" vertex="1" parent="7eF567OT12qQPNYDKjUr-1">
          <mxGeometry x="502.5" y="90" width="129.75" height="30" as="geometry" />
        </mxCell>
        <mxCell id="7eF567OT12qQPNYDKjUr-30" value="2 B" style="shape=partialRectangle;html=1;whiteSpace=wrap;connectable=0;fillColor=#ffffff;verticalAlign=middle;spacing=3.8;strokeWidth=0.8;fontSize=13;align=left;" vertex="1" parent="7eF567OT12qQPNYDKjUr-1">
          <mxGeometry y="120" width="48" height="30" as="geometry" />
        </mxCell>
        <mxCell id="7eF567OT12qQPNYDKjUr-31" value="Rajesh Thapa" style="shape=partialRectangle;html=1;whiteSpace=wrap;connectable=0;fillColor=#ffffff;verticalAlign=middle;spacing=3.8;strokeWidth=0.8;fontSize=13;align=left;" vertex="1" parent="7eF567OT12qQPNYDKjUr-1">
          <mxGeometry x="48" y="120" width="116.25" height="30" as="geometry" />
        </mxCell>
        <mxCell id="7eF567OT12qQPNYDKjUr-32" value="-" style="shape=partialRectangle;html=1;whiteSpace=wrap;connectable=0;fillColor=#ffffff;verticalAlign=middle;spacing=3.8;strokeWidth=0.8;fontSize=13;align=left;" vertex="1" parent="7eF567OT12qQPNYDKjUr-1">
          <mxGeometry x="164.25" y="120" width="64.5" height="30" as="geometry" />
        </mxCell>
        <mxCell id="7eF567OT12qQPNYDKjUr-33" value="20" style="shape=partialRectangle;html=1;whiteSpace=wrap;connectable=0;fillColor=#ffffff;verticalAlign=middle;spacing=3.8;strokeWidth=0.8;fontSize=13;align=right;" vertex="1" parent="7eF567OT12qQPNYDKjUr-1">
          <mxGeometry x="228.75" y="120" width="73.5" height="30" as="geometry" />
        </mxCell>
        <mxCell id="7eF567OT12qQPNYDKjUr-34" value="AC-1" style="shape=partialRectangle;html=1;whiteSpace=wrap;connectable=0;fillColor=#ffffff;verticalAlign=middle;spacing=3.8;strokeWidth=0.8;fontSize=13;align=left;" vertex="1" parent="7eF567OT12qQPNYDKjUr-1">
          <mxGeometry x="302.25" y="120" width="76.5" height="30" as="geometry" />
        </mxCell>
        <mxCell id="7eF567OT12qQPNYDKjUr-35" value="Take Attendance" style="shape=partialRectangle;html=1;whiteSpace=wrap;connectable=0;fillColor=#ffffff;verticalAlign=middle;spacing=3.8;strokeWidth=0.8;fontSize=13;align=left;" vertex="1" parent="7eF567OT12qQPNYDKjUr-1">
          <mxGeometry x="378.75" y="120" width="123.75" height="30" as="geometry" />
        </mxCell>
        <mxCell id="7eF567OT12qQPNYDKjUr-36" value="Create Assignment" style="shape=partialRectangle;html=1;whiteSpace=wrap;connectable=0;fillColor=#ffffff;verticalAlign=middle;spacing=3.8;strokeWidth=0.8;fontSize=13;align=left;" vertex="1" parent="7eF567OT12qQPNYDKjUr-1">
          <mxGeometry x="502.5" y="120" width="129.75" height="30" as="geometry" />
        </mxCell>
        <mxCell id="7eF567OT12qQPNYDKjUr-37" value="2 C" style="shape=partialRectangle;html=1;whiteSpace=wrap;connectable=0;fillColor=#ffffff;verticalAlign=middle;spacing=3.8;strokeWidth=0.8;fontSize=13;align=left;" vertex="1" parent="7eF567OT12qQPNYDKjUr-1">
          <mxGeometry y="150" width="48" height="30" as="geometry" />
        </mxCell>
        <mxCell id="7eF567OT12qQPNYDKjUr-38" value="Priya Joshi" style="shape=partialRectangle;html=1;whiteSpace=wrap;connectable=0;fillColor=#ffffff;verticalAlign=middle;spacing=3.8;strokeWidth=0.8;fontSize=13;align=left;" vertex="1" parent="7eF567OT12qQPNYDKjUr-1">
          <mxGeometry x="48" y="150" width="116.25" height="30" as="geometry" />
        </mxCell>
        <mxCell id="7eF567OT12qQPNYDKjUr-39" value="-" style="shape=partialRectangle;html=1;whiteSpace=wrap;connectable=0;fillColor=#ffffff;verticalAlign=middle;spacing=3.8;strokeWidth=0.8;fontSize=13;align=left;" vertex="1" parent="7eF567OT12qQPNYDKjUr-1">
          <mxGeometry x="164.25" y="150" width="64.5" height="30" as="geometry" />
        </mxCell>
        <mxCell id="7eF567OT12qQPNYDKjUr-40" value="15" style="shape=partialRectangle;html=1;whiteSpace=wrap;connectable=0;fillColor=#ffffff;verticalAlign=middle;spacing=3.8;strokeWidth=0.8;fontSize=13;align=right;" vertex="1" parent="7eF567OT12qQPNYDKjUr-1">
          <mxGeometry x="228.75" y="150" width="73.5" height="30" as="geometry" />
        </mxCell>
        <mxCell id="7eF567OT12qQPNYDKjUr-41" value="AD-2" style="shape=partialRectangle;html=1;whiteSpace=wrap;connectable=0;fillColor=#ffffff;verticalAlign=middle;spacing=3.8;strokeWidth=0.8;fontSize=13;align=left;" vertex="1" parent="7eF567OT12qQPNYDKjUr-1">
          <mxGeometry x="302.25" y="150" width="76.5" height="30" as="geometry" />
        </mxCell>
        <mxCell id="7eF567OT12qQPNYDKjUr-42" value="Take Attendance" style="shape=partialRectangle;html=1;whiteSpace=wrap;connectable=0;fillColor=#ffffff;verticalAlign=middle;spacing=3.8;strokeWidth=0.8;fontSize=13;align=left;" vertex="1" parent="7eF567OT12qQPNYDKjUr-1">
          <mxGeometry x="378.75" y="150" width="123.75" height="30" as="geometry" />
        </mxCell>
        <mxCell id="7eF567OT12qQPNYDKjUr-43" value="Create Assignment" style="shape=partialRectangle;html=1;whiteSpace=wrap;connectable=0;fillColor=#ffffff;verticalAlign=middle;spacing=3.8;strokeWidth=0.8;fontSize=13;align=left;" vertex="1" parent="7eF567OT12qQPNYDKjUr-1">
          <mxGeometry x="502.5" y="150" width="129.75" height="30" as="geometry" />
        </mxCell>
        <mxCell id="7eF567OT12qQPNYDKjUr-44" value="3 A" style="shape=partialRectangle;html=1;whiteSpace=wrap;connectable=0;fillColor=#ffffff;verticalAlign=middle;spacing=3.8;strokeWidth=0.8;fontSize=13;align=left;" vertex="1" parent="7eF567OT12qQPNYDKjUr-1">
          <mxGeometry y="180" width="48" height="30" as="geometry" />
        </mxCell>
        <mxCell id="7eF567OT12qQPNYDKjUr-45" value="Sanjay Patel" style="shape=partialRectangle;html=1;whiteSpace=wrap;connectable=0;fillColor=#ffffff;verticalAlign=middle;spacing=3.8;strokeWidth=0.8;fontSize=13;align=left;" vertex="1" parent="7eF567OT12qQPNYDKjUr-1">
          <mxGeometry x="48" y="180" width="116.25" height="30" as="geometry" />
        </mxCell>
        <mxCell id="7eF567OT12qQPNYDKjUr-46" value="-" style="shape=partialRectangle;html=1;whiteSpace=wrap;connectable=0;fillColor=#ffffff;verticalAlign=middle;spacing=3.8;strokeWidth=0.8;fontSize=13;align=left;" vertex="1" parent="7eF567OT12qQPNYDKjUr-1">
          <mxGeometry x="164.25" y="180" width="64.5" height="30" as="geometry" />
        </mxCell>
        <mxCell id="7eF567OT12qQPNYDKjUr-47" value="5" style="shape=partialRectangle;html=1;whiteSpace=wrap;connectable=0;fillColor=#ffffff;verticalAlign=middle;spacing=3.8;strokeWidth=0.8;fontSize=13;align=right;" vertex="1" parent="7eF567OT12qQPNYDKjUr-1">
          <mxGeometry x="228.75" y="180" width="73.5" height="30" as="geometry" />
        </mxCell>
        <mxCell id="7eF567OT12qQPNYDKjUr-48" value="" style="shape=partialRectangle;html=1;whiteSpace=wrap;connectable=0;fillColor=#ffffff;verticalAlign=middle;spacing=3.8;strokeWidth=0.8;fontSize=13;" vertex="1" parent="7eF567OT12qQPNYDKjUr-1">
          <mxGeometry x="302.25" y="180" width="76.5" height="30" as="geometry" />
        </mxCell>
        <mxCell id="7eF567OT12qQPNYDKjUr-49" value="Take Attendance" style="shape=partialRectangle;html=1;whiteSpace=wrap;connectable=0;fillColor=#ffffff;verticalAlign=middle;spacing=3.8;strokeWidth=0.8;fontSize=13;align=left;" vertex="1" parent="7eF567OT12qQPNYDKjUr-1">
          <mxGeometry x="378.75" y="180" width="123.75" height="30" as="geometry" />
        </mxCell>
        <mxCell id="7eF567OT12qQPNYDKjUr-50" value="Create Assignment" style="shape=partialRectangle;html=1;whiteSpace=wrap;connectable=0;fillColor=#ffffff;verticalAlign=middle;spacing=3.8;strokeWidth=0.8;fontSize=13;align=left;" vertex="1" parent="7eF567OT12qQPNYDKjUr-1">
          <mxGeometry x="502.5" y="180" width="129.75" height="30" as="geometry" />
        </mxCell>
        <mxCell id="7eF567OT12qQPNYDKjUr-51" value="All Classes" style="html=1;overflow=block;blockSpacing=1;whiteSpace=wrap;fontSize=20;align=left;spacing=0;strokeColor=#unset;rounded=1;absoluteArcSize=1;arcSize=9;fillColor=#unset;strokeWidth=NaN;lucidId=r0Lig8obasEd;" vertex="1" parent="1">
          <mxGeometry x="112" y="110" width="180" height="45" as="geometry" />
        </mxCell>
        <mxCell id="7eF567OT12qQPNYDKjUr-52" value="Manage Classes" style="html=1;overflow=block;blockSpacing=1;whiteSpace=wrap;fontSize=16.7;fontColor=#ffffff;spacing=3.8;strokeColor=#unset;fillOpacity=100;rounded=1;absoluteArcSize=1;arcSize=9;fillColor=#6db1ff;strokeWidth=NaN;lucidId=E0LiU~LUEUbT;" vertex="1" parent="1">
          <mxGeometry x="622" y="117" width="138" height="32" as="geometry" />
        </mxCell>
        <mxCell id="7eF567OT12qQPNYDKjUr-53" value="&lt;div style=&quot;display: flex; justify-content: flex-start; text-align: left; align-items: baseline; line-height: 1.25; margin-top: -2px; font-size: 12px;&quot;&gt;&lt;font style=&quot;font-size: 12px;&quot;&gt;&lt;span&gt;https://localhost:7004/sch/classes&lt;br&gt;&lt;/span&gt;&lt;/font&gt;&lt;/div&gt;&lt;div style=&quot;display: flex; justify-content: flex-start; text-align: left; align-items: baseline; line-height: 1.25; margin-top: -2px; font-size: 12px;&quot;&gt;&lt;font style=&quot;font-size: 12px;&quot;&gt;&lt;span&gt;https://localhost:7004/sch/section?sectionId=48&lt;/span&gt;&lt;/font&gt;&lt;/div&gt;" style="html=1;overflow=block;blockSpacing=1;whiteSpace=wrap;fontSize=13;spacing=3.8;strokeColor=none;fillOpacity=0;rounded=1;absoluteArcSize=1;arcSize=9;fillColor=#ffffff;strokeWidth=0;lucidId=iIZiVdBgxifa;" vertex="1" parent="1">
          <mxGeometry x="112" y="40" width="288" height="48" as="geometry" />
        </mxCell>
      </root>
    </mxGraphModel>
  </diagram>
</mxfile>
